<?xml version="1.0" standalone="no"?><!DOCTYPE svg PUBLIC "-//W3C//DTD SVG 1.1//EN" "http://www.w3.org/Graphics/SVG/1.1/DTD/svg11.dtd"><svg t="1685087874480" class="icon" viewBox="0 0 1024 1024" version="1.1" xmlns="http://www.w3.org/2000/svg" p-id="1395" xmlns:xlink="http://www.w3.org/1999/xlink" width="200" height="200"><path d="M512 512m-512 0a512 512 0 1 0 1024 0 512 512 0 1 0-1024 0Z" fill="#5D49FE" p-id="1396"></path><path d="M324.408781 655.018925C505.290126 655.018925 651.918244 508.387706 651.918244 327.509463c0-152.138029-103.733293-280.047334-244.329811-316.853972C205.813923 52.463528 47.497011 213.017581 8.987325 415.981977 47.587706 553.880127 174.183098 655.018925 324.408781 655.018925z" fill="#FFFFFF" fill-opacity=".2" p-id="1397"></path><path d="M512 1024c282.766631 0 512-229.233369 512-512 0-31.765705-2.891385-62.853911-8.433853-93.018889C928.057169 336.0999 809.874701 285.26268 679.824375 285.26268c-269.711213 0-488.357305 218.645317-488.357305 488.357305 0 54.959576 9.084221 107.802937 25.822474 157.10377C300.626556 989.489417 402.283167 1024 512 1024z" fill="#FFFFFF" fill-opacity=".15" p-id="1398"></path><path d="M732.535958 756.566238c36.389596 0 65.889478-29.499882 65.889477-65.889478 0 36.389596 29.502983 65.889478 65.889478 65.889478-17.053747 0-65.889478 29.502983-65.889478 65.889477 0-36.386495-29.499882-65.889478-65.889477-65.889477zM159.685087 247.279334c25.686819 0 46.51022-20.8234 46.51022-46.51022 0 25.686819 20.8234 46.51022 46.510219 46.51022-12.03607 0-46.51022 20.8234-46.510219 46.510219 0-25.686819-20.8234-46.51022-46.51022-46.510219z" fill="#FFFFFF" fill-opacity=".5" p-id="1399"></path><path d="M206.195307 333.32324c8.562531 0 15.503407-6.940875 15.503406-15.503407 0 8.562531 6.940875 15.503407 15.503407 15.503407-4.012282 0-15.503407 6.940875-15.503407 15.503406 0-8.562531-6.940875-15.503407-15.503406-15.503406z" fill="#FFFFFF" fill-opacity=".3" p-id="1400"></path><path d="M407.09775 388.203749c-98.359812 0.824781-168.360793 24.631037-178.672884 67.966159-9.849314 41.388669 36.954695 91.330568 117.389469 134.874985-29.610731 93.676233-28.571228 167.519734 9.51289 190.706629 36.372542 22.146616 98.39702-6.877311 164.720593-69.814941 80.061917 57.070365 150.706289 78.899936 184.554877 49.896164 32.329254-27.703037 23.858192-95.579276-15.584024-178.021741 79.092954-58.405208 121.716469-118.756094 104.554198-159.868803-16.394852-39.266253-83.657932-52.196094-174.361387-40.20886-31.180451-93.167721-75.485311-152.298489-119.942104-148.701698-42.459955 3.435555-75.558177 63.322114-92.171628 153.172106z" fill="#FFFFFF" p-id="1401"></path><path d="M446.086492 514.661935m23.25511 0l93.381668 0q23.25511 0 23.25511 23.25511l0 0q0 23.25511-23.25511 23.255109l-93.381668 0q-23.25511 0-23.25511-23.255109l0 0q0-23.25511 23.25511-23.25511Z" fill="#7564FE" p-id="1402"></path></svg>